<?xml version="1.0" encoding="UTF-8"?>
<svg id="Layer_1" data-name="Layer 1" xmlns="http://www.w3.org/2000/svg" version="1.1" viewBox="0 0 179.63 184.92">
  <defs>
    <style>
      .cls-1 {
        fill: #fff;
        stroke-width: 0px;
      }
    </style>
  </defs>
  <path class="cls-1" d="M94.25,0c-31.91,0-57.88,25.96-57.88,57.88,0,18.81,9.17,36.32,24.3,47.11.04,0,.09.01.13.02,3.6.43,7.03-.38,10.41,1.05.28-.24.53-.5.83-.72l-3.16-1.76c-16.59-9.23-26.9-26.74-26.9-45.7,0-28.82,23.45-52.27,52.27-52.27s52.27,23.45,52.27,52.27c0,15.83-7.22,30.62-19.26,40.45,1.52,1.13,2.86,2.47,4.03,3.98,13.05-10.89,20.84-27.1,20.84-44.43C152.13,25.96,126.17,0,94.25,0Z"/>
  <path class="cls-1" d="M178.48,182.09c-.1-10.15-2.05-19.99-5.56-29.13-.19.32-.42.65-.69.96-.56.63-1.08,1.29-1.56,1.97-.6.8-1.29,1.38-2.02,1.79,2.35,6.88,3.79,14.15,4.13,21.63H15.72c.3-6.5,1.42-12.84,3.25-18.92-1.93.13-3.93-.59-5.14-2.4-2.4,7.68-3.71,15.78-3.8,24.09l-.03,2.83h168.51l-.03-2.83Z"/>
  <path class="cls-1" d="M153.71,117.36c11.05,0,20.01,8.96,20.01,20.01s-8.96,20.01-20.01,20.01-20.01-8.96-20.01-20.01,8.96-20.01,20.01-20.01M153.71,111.45c-14.29,0-25.92,11.63-25.92,25.92s11.63,25.92,25.92,25.92,25.92-11.63,25.92-25.92-11.63-25.92-25.92-25.92h0Z"/>
  <path class="cls-1" d="M25.92,117.36c11.05,0,20.01,8.96,20.01,20.01s-8.96,20.01-20.01,20.01-20.01-8.96-20.01-20.01,8.96-20.01,20.01-20.01M25.92,111.45c-14.29,0-25.92,11.63-25.92,25.92s11.63,25.92,25.92,25.92,25.92-11.63,25.92-25.92-11.63-25.92-25.92-25.92h0Z"/>
  <path class="cls-1" d="M142.59,119.1v-18.26c-10.61-6.37-21.23-12.72-31.83-19.1-1.57-.94-3.5-1.02-5.14-.2-12.43,6.23-24.86,12.44-37.28,18.69-.96.48-1.66.47-2.59-.09-10.54-6.37-22.1-13.71-32.72-20.04-.28-.16-.62.03-.62.36,0,10.27.05,23.67.11,37.09.28-.04.57-.07.87-.07,2.18,0,3.7,1.02,4.56,2.45.53.2,1.06.4,1.58.64,0-8.96,0-17.93,0-26.89,0-.31.03-.62.05-1.1.8.46,1.51.86,2.21,1.28,6.95,4.17,13.89,8.35,20.85,12.51.65.39.95.79.95,1.59-.03,19.16-.02,38.31-.03,57.47,0,.23-.02.45-.04.92-3.85-2.3-7.49-4.47-11.14-6.66-3.43-2.06-6.86-4.12-10.29-6.18-.48,1.65-1.65,3.07-3.51,3.6-.52.54-1.16.97-1.94,1.24,9.76,5.86,19.52,11.71,29.27,17.59.72.43,1.27.51,2.06.11,13.03-6.54,26.07-13.04,39.1-19.57.79-.39,1.36-.43,2.16.05,10.47,6.33,20.97,12.61,31.46,18.9.61.36,1.25.68,1.87,1.02v-18.3c-1.26-.16-2.27-.75-3.3-1.57-1.15-.92-2.28-1.85-3.33-2.89-.1-.1-.17-.21-.26-.32,0,3.24,0,6.47,0,9.71,0,.32-.03.63-.05,1.09-.38-.2-.69-.33-.97-.51-7.39-4.43-14.79-8.86-22.16-13.33-.41-.25-.82-.9-.82-1.36-.04-19.27-.03-38.55-.03-57.82,0-.15.03-.3.08-.69,3.11,1.87,6.07,3.65,9.02,5.42,4.67,2.8,9.33,5.61,14.01,8.38.65.38.93.79.93,1.59,0,5.69,0,11.38,0,17.07.54-.46,1.12-.89,1.68-1.31.29-.22.59-.45.89-.67.2-.15.4-.3.6-.45-.06.05-.1.08-.15.12,1.2-.94,2.54-1.48,3.87-1.51ZM104.05,150.26c-10.95,5.45-21.88,10.94-32.82,16.41-.17.08-.35.14-.7.27-.03-.57-.08-1.02-.08-1.48,0-15.7,0-31.39,0-47.09,0-3.5-.02-6.99.04-10.49,0-.44.34-1.09.71-1.28,10.99-5.55,22-11.06,33.01-16.57.1-.05.22-.08.6-.2v1.41c0,19.15,0,38.31,0,57.46,0,.66-.02,1.17-.76,1.54Z"/>
</svg>