<?xml version="1.0" encoding="UTF-8"?>
<svg id="Layer_1" data-name="Layer 1" xmlns="http://www.w3.org/2000/svg" version="1.1" viewBox="0 0 196.28 198.22">
  <defs>
    <style>
      .cls-1 {
        fill: none;
        stroke: #fff;
        stroke-miterlimit: 10;
        stroke-width: 5.69px;
      }

      .cls-2 {
        fill: #fff;
        stroke-width: 0px;
      }
    </style>
  </defs>
  <path class="cls-2" d="M111.6,120.92c4.75,1.65,9.28,3.73,13.53,6.19,3.59.11,7.19.21,10.78.27-5.23-3.85-10.94-7.14-17.05-9.74,15.7-10.9,25.24-28.89,25.24-48.22,0-3.49-.32-6.9-.91-10.23-1.79.6-3.92.34-5.75-1.22-.13-.11-.25-.23-.36-.35.87,3.8,1.34,7.74,1.34,11.8,0,19.22-10.45,36.97-27.27,46.33l-5.55,3.09,6,2.08Z"/>
  <path class="cls-2" d="M170.82,195.35c-.08-7.56-1.18-14.95-3.16-22.01-1.08.96-2.54,1.51-4.01,1.55-.74.02-1.25.74-1.06,1.46,1.36,5.24,2.21,10.66,2.46,16.19H5.8c1.5-32.37,22.68-60.92,53.45-71.61l6-2.08-5.55-3.09c-16.82-9.36-27.27-27.11-27.27-46.33,0-29.22,23.77-52.99,52.99-52.99,7.81,0,15.23,1.71,21.91,4.76-.45-2,.43-4.02,1.94-5.36-7.29-3.26-15.36-5.09-23.85-5.09-32.36,0-58.68,26.33-58.68,58.68,0,19.33,9.54,37.31,25.24,48.22C21.02,130.82.37,161.36.03,195.35l-.03,2.87h170.85l-.03-2.87Z"/>
  <path class="cls-2" d="M169.01,63.66c.09-2.55-.82-4.98-2.57-6.85l-38.42-41.07-.73-.78-.95-.47-14.14-7.13-14.6-7.36,6.38,15.05,6.17,14.58.41.99.73.77.33.36.21.22,36.56,39.09.1.1,1.22,1.3c1.16,1.24,2.64,2.15,4.26,2.63,3.24.96,6.78.12,9.24-2.18l2.78-2.6c1.87-1.74,2.94-4.1,3.02-6.65ZM161.9,65.94l-2.79,2.59c-.96.9-2.27,1.17-3.44.82-.59-.17-1.13-.5-1.58-.98l-2.36-2.52-14.95-15.97-16.05-17.16-5.06-5.42-6.17-14.58,14.14,7.12,38.42,41.07c1.34,1.43,1.27,3.69-.16,5.03Z"/>
  <path class="cls-2" d="M150.56,138.23c11.2,0,20.29,9.08,20.29,20.29s-9.08,20.29-20.29,20.29-20.29-9.08-20.29-20.29,9.08-20.29,20.29-20.29M150.56,132.23c-14.49,0-26.28,11.79-26.28,26.28s11.79,26.28,26.28,26.28,26.28-11.79,26.28-26.28-11.79-26.28-26.28-26.28h0Z"/>
  <g>
    <g>
      <path class="cls-1" d="M113.34,139.93c0,6.04-4.9,10.94-10.93,10.94s-10.94-4.9-10.94-10.94,4.9-10.93,10.94-10.93,10.93,4.9,10.93,10.93Z"/>
      <path class="cls-1" d="M102.41,150.88c6.03,0,10.93-4.9,10.93-10.94s-4.9-10.93-10.93-10.93h72.53c6.03,0,10.93,4.9,10.93,10.93,0,3.01-1.23,5.76-3.21,7.74s-4.71,3.21-7.72,3.21"/>
    </g>
    <g>
      <path class="cls-1" d="M120.91,161.81c0,6.04-4.9,10.94-10.93,10.94s-10.94-4.9-10.94-10.94,4.9-10.93,10.94-10.93,10.93,4.9,10.93,10.93Z"/>
      <path class="cls-1" d="M131.46,172.76h-21.48c6.03,0,10.93-4.9,10.93-10.94s-4.9-10.93-10.93-10.93h18.63"/>
      <path class="cls-1" d="M173.32,150.88h9.19c6.03,0,10.93,4.9,10.93,10.93,0,3.01-1.23,5.76-3.21,7.74s-4.71,3.21-7.72,3.21h-12.04"/>
    </g>
  </g>
</svg>